<svg width="171" height="55" viewBox="0 0 171 55" fill="none" xmlns="http://www.w3.org/2000/svg">
<path fill-rule="evenodd" clip-rule="evenodd" d="M25.9854 0.148753C26.0524 0.182271 26.153 0.249308 26.22 0.249308C28.868 0.349863 31.4154 0.919676 33.8622 1.82467C35.27 2.32745 36.6442 2.93078 37.985 3.60115C40.0296 4.6067 41.9737 5.84688 43.7837 7.22113C44.6887 7.92502 45.5937 8.62891 46.4986 9.33279C46.6662 9.46687 46.8003 9.50038 47.0014 9.33279C47.8059 8.72946 48.6438 8.15965 49.4483 7.55632C50.1186 7.05354 50.7555 6.55077 51.4259 6.01447C51.4594 5.98095 51.5264 5.94744 51.5934 5.91392C51.4929 6.58428 51.4259 7.18762 51.3253 7.82447C51.2247 8.66243 51.0907 9.46687 50.9901 10.3048C50.8896 11.0757 50.789 11.8467 50.6549 12.6511C50.5544 13.4556 50.4203 14.2935 50.3197 15.098C50.1857 15.9694 50.0851 16.8409 49.951 17.7124C49.951 17.7794 49.817 17.88 49.7499 17.8465C48.2416 17.6454 46.7333 17.4442 45.225 17.2096C44.0853 17.042 42.9792 16.9415 41.8396 16.7739C40.8676 16.6398 39.929 16.5057 38.957 16.3717C38.6553 16.3381 38.3537 16.3046 38.052 16.2711C38.052 16.2376 38.052 16.2041 38.052 16.2041C38.3202 15.9694 38.6218 15.7348 38.89 15.5002C39.862 14.6957 40.8676 13.9248 41.8396 13.1204C41.9066 13.0869 41.9066 12.9193 41.8731 12.8522C41.3033 11.8132 40.5324 10.9752 39.6274 10.2378C38.5883 9.36631 37.4487 8.69594 36.2085 8.12613C34.5996 7.38873 32.9237 6.85243 31.1807 6.48373C30.2757 6.31614 29.3708 6.18206 28.4658 6.04799C27.125 5.84688 25.7843 5.84688 24.41 5.8804C22.3989 5.94744 20.3878 6.18206 18.4773 6.81891C17.3712 7.18762 16.2986 7.62336 15.293 8.09261C13.9523 8.72946 12.7791 9.66798 11.7736 10.7741C11.5725 11.0087 11.3714 11.2433 11.1703 11.5115C10.3323 10.8411 9.49434 10.2043 8.62287 9.50038C8.62287 12.4835 8.62287 15.3661 8.62287 18.2822C11.7401 18.2822 14.8573 18.2822 18.0415 18.2822C17.1701 17.3102 16.3321 16.3717 15.4606 15.4331C15.6952 15.232 15.9299 15.0309 16.1645 14.8968C17.1365 14.2935 18.1086 13.6567 19.1141 13.1204C20.4549 12.4165 21.8961 11.9807 23.4045 11.7796C24.276 11.6791 25.1474 11.6791 26.0189 11.5785C26.4211 11.545 26.6893 11.6791 26.9574 11.9807C29.4713 14.4946 31.9852 17.0085 34.4991 19.5224C40.1972 25.2205 45.8953 30.8851 51.627 36.5832C51.8616 36.8179 51.8951 36.9519 51.761 37.2536C50.856 39.5329 49.6494 41.611 48.2081 43.5551C47.6383 44.2925 47.0349 44.9628 46.3981 45.6667C44.8562 47.4432 43.0127 48.8845 41.0687 50.1582C38.2196 52.0017 35.1359 53.3089 31.8511 54.0799C30.678 54.348 29.5048 54.5156 28.2982 54.6832C26.9239 54.8843 25.5497 54.9178 24.2089 54.8508C22.0973 54.7502 20.0191 54.4486 17.9745 53.8787C16.2986 53.4095 14.6562 52.7726 13.1143 51.9682C11.6395 51.1973 10.2317 50.2923 8.95805 49.2197C8.15361 48.5158 7.34917 47.7784 6.57824 47.0075C6.20954 46.6723 5.90788 46.2701 5.57269 45.8678C5.33806 45.5997 5.27103 45.5662 5.00288 45.7673C3.66214 46.6723 2.35493 47.5773 1.01419 48.4823C0.880118 48.5493 0.779563 48.6164 0.578453 48.7504C0.611971 48.4488 0.611971 48.2141 0.64549 47.9795C0.746045 47.0075 0.8466 46.069 0.947155 45.0969C1.04771 44.0579 1.08123 43.0188 1.18178 41.9797C1.31586 40.4379 1.48345 38.9295 1.65104 37.4212C1.68456 37.2201 1.78512 37.1531 1.98623 37.1866C2.92474 37.3207 3.86326 37.4547 4.80177 37.5888C5.60621 37.6894 6.41065 37.7899 7.21509 37.8905C8.05305 37.991 8.89101 38.1251 9.72897 38.2256C10.5669 38.3262 11.3714 38.4268 12.2093 38.5273C12.6451 38.5944 13.1143 38.6614 13.6171 38.7284C13.2149 39.0636 12.8462 39.3988 12.511 39.7005C11.7401 40.3373 10.9356 40.9742 10.1647 41.6445C9.72897 42.0132 9.72897 42.0467 10.0642 42.516C10.8686 43.6891 11.8742 44.6612 13.0473 45.4991C15.226 47.0745 17.6728 48.0465 20.2873 48.6499C21.2928 48.8845 22.3654 49.0186 23.4045 49.1526C24.3765 49.2532 25.315 49.3202 26.2871 49.3202C27.5943 49.3202 28.868 49.2197 30.1752 48.9851C31.7506 48.7169 33.2924 48.3147 34.8007 47.7114C36.4096 47.0745 37.9179 46.203 39.2587 45.0969C39.6609 44.7617 40.0631 44.393 40.4653 44.0243C40.7335 43.7562 40.767 43.7562 41.0352 44.0243C41.4039 44.3595 41.739 44.6947 42.1077 45.0299C42.4094 45.298 42.7111 45.5662 43.0463 45.8343C43.0798 45.8343 43.1133 45.8008 43.1468 45.8008C43.0798 42.8177 43.0463 39.8345 42.9792 36.8514C39.929 36.8514 36.9124 36.8514 33.8622 36.8514C33.8622 36.8849 33.8287 36.9184 33.8287 36.952C33.8957 37.019 33.9628 37.1195 34.0633 37.1866C34.8007 37.8905 35.5381 38.5608 36.242 39.2647C36.5102 39.4993 36.5102 39.5664 36.242 39.801C35.6722 40.4043 34.9683 40.8066 34.2644 41.1753C32.6556 42.0467 31.0132 42.7506 29.2702 43.2869C28.2982 43.5886 27.2926 43.8567 26.2535 43.8567C25.6837 43.8567 25.2145 43.6892 24.7787 43.2534C21.695 40.1362 18.5778 37.019 15.4606 33.9353C10.4329 28.9411 5.4051 23.9133 0.377343 18.9191C0.00864027 18.5504 -0.0583965 18.1481 0.0421587 17.6789C0.343824 16.3717 0.980674 15.1985 1.65104 14.0589C2.52252 12.6511 3.52807 11.3439 4.60066 10.0702C5.90788 8.56187 7.38269 7.18762 8.95805 5.94743C10.6005 4.64022 12.3769 3.53411 14.254 2.62911C16.2651 1.65708 18.3767 0.919676 20.5889 0.584492C21.5945 0.4169 22.6336 0.349863 23.6726 0.21579C23.7397 0.21579 23.8402 0.148753 23.9073 0.115234C24.6447 0.148753 25.315 0.148753 25.9854 0.148753ZM14.7567 25.4551C14.7232 25.4551 14.6897 25.4887 14.6897 25.4887C14.8238 25.7233 14.9243 26.025 15.1254 26.2261C16.1645 27.3322 17.2371 28.4048 18.3097 29.4773C19.818 31.0192 21.3263 32.5275 22.8347 34.0694C23.9073 35.1755 25.0134 36.2481 26.0859 37.3542C26.5552 37.8234 27.0245 38.3262 27.4937 38.7955C27.8959 39.1977 28.5328 39.1977 28.9015 38.829C29.3037 38.4603 29.2702 37.8234 28.868 37.4212C28.5663 37.086 28.2311 36.7508 27.9295 36.4492C26.5217 35.0079 25.1139 33.5666 23.6726 32.1253C22.4324 30.8851 21.1923 29.6449 19.9521 28.4048C18.7454 27.1981 17.5388 25.9579 16.3321 24.7513C16.0304 24.4496 15.6617 24.4496 15.293 24.5837C14.9578 24.7177 14.7567 25.0529 14.7567 25.4551ZM32.7896 34.7397C33.2254 34.6727 33.5605 34.4716 33.6946 34.1364C33.8622 33.7007 33.7617 33.2984 33.46 32.9633C32.5215 32.0247 31.6165 31.0862 30.678 30.1142C28.5328 27.969 26.4211 25.7903 24.276 23.6451C23.7397 23.1089 23.1698 22.539 22.6336 22.0027C22.1643 21.5335 21.7286 21.0307 21.2593 20.595C20.8571 20.1928 20.2202 20.1928 19.8515 20.5615C19.4828 20.9302 19.4828 21.567 19.885 21.9692C20.5554 22.6396 21.1923 23.3435 21.8626 24.0138C22.9017 25.0864 23.9408 26.159 25.0134 27.1981C27.3932 29.5779 29.7395 31.9912 32.1193 34.371C32.2869 34.5386 32.555 34.6057 32.7896 34.7397ZM25.5497 15.9694C25.0134 16.003 24.7117 16.137 24.5441 16.5057C24.3765 16.9079 24.4435 17.3437 24.7452 17.6454C25.8848 18.8185 27.0245 19.9581 28.1641 21.1313C29.1026 22.0698 30.0076 23.0083 30.9461 23.9803C32.8902 25.9579 34.8342 27.902 36.7783 29.8796C37.1805 30.2818 37.8174 30.3153 38.1861 29.9131C38.5548 29.5444 38.5548 28.9075 38.1526 28.5053C37.0465 27.3657 35.9068 26.2261 34.8007 25.0864C34.0298 24.282 33.2254 23.4776 32.4544 22.7066C30.3428 20.5615 28.2311 18.4163 26.1195 16.3046C25.9519 16.137 25.6502 16.0365 25.5497 15.9694Z" fill="white"/>
<path fill-rule="evenodd" clip-rule="evenodd" d="M75.1254 17.9806C74.4885 17.9806 73.8517 17.9806 73.2148 17.9806C72.9802 17.9806 72.9131 17.88 72.9131 17.6789C72.9131 16.8745 72.9131 16.0365 72.9131 15.2321C72.9131 14.9975 72.9802 14.9304 73.2148 14.9304C74.4885 14.9304 75.7957 14.9304 77.0694 14.9304C77.3041 14.9304 77.3711 14.9975 77.3711 15.2321C77.3711 16.07 77.3711 16.8745 77.3711 17.7124C77.3711 17.9136 77.3041 18.0141 77.0694 18.0141C76.3991 17.9471 75.7622 17.9806 75.1254 17.9806Z" fill="white"/>
<path fill-rule="evenodd" clip-rule="evenodd" d="M149.599 54.8846C149.398 54.8175 149.197 54.7505 148.962 54.717C146.951 54.3818 145.778 53.3092 145.309 51.2981C145.175 50.7618 145.141 50.1585 145.108 49.5887C145.108 41.1085 145.108 32.6619 145.108 24.1817C145.108 23.5114 145.041 22.8745 144.705 22.2712C144.437 21.8019 144.035 21.6008 143.532 21.6008C143.197 21.6008 142.862 21.6678 142.527 21.7349C142.292 21.7684 142.191 21.9025 142.225 22.1371C142.225 23.1091 142.225 24.0812 142.225 25.0532C142.225 30.6173 142.225 36.1813 142.225 41.7789C142.225 42.2146 142.225 42.2146 141.789 42.2146C140.549 42.2146 139.309 42.2146 138.035 42.2146C137.734 42.2146 137.667 42.1141 137.667 41.8459C137.667 35.1758 137.667 28.5391 137.667 21.869C137.667 21.6343 137.734 21.5003 137.935 21.3997C139.242 20.7964 140.616 20.2936 142.057 20.1595C142.828 20.0925 143.599 20.0254 144.37 20.059C145.309 20.0925 146.214 20.2266 147.085 20.5953C148.392 21.1316 149.096 22.1706 149.364 23.5114C149.498 24.1817 149.532 24.8856 149.532 25.556C149.532 33.9691 149.532 42.3487 149.532 50.7618C149.532 51.164 149.599 51.5998 149.666 52.002C149.8 52.6388 150.437 53.0746 151.208 53.1081C151.476 53.1081 151.744 53.0746 152.012 53.0746C152.18 53.0746 152.281 53.1081 152.281 53.2757C152.281 53.7114 152.281 54.1137 152.281 54.5494C152.281 54.7505 152.18 54.8175 152.012 54.784C151.744 54.784 151.443 54.784 151.174 54.784C151.074 54.784 150.973 54.8511 150.906 54.8846C150.538 54.8846 150.068 54.8846 149.599 54.8846Z" fill="#EF3139"/>
<path fill-rule="evenodd" clip-rule="evenodd" d="M59.0999 32.1923C59.6362 32.1923 60.1725 32.1588 60.7088 32.1588C61.5803 32.1588 62.4518 32.1588 63.3232 32.1588C63.6249 32.1588 63.7255 32.2258 63.7255 32.5275C63.7255 34.6056 63.7255 36.6838 63.7255 38.7619C63.7255 39.2647 63.826 39.7339 64.0942 40.1697C64.5299 40.9071 65.9377 40.9071 66.2393 40.0691C66.3734 39.7339 66.5075 39.3652 66.5075 38.9965C66.541 36.8849 66.541 34.7732 66.5745 32.6951C66.5745 32.0917 66.3399 31.6225 65.9377 31.1867C65.2338 30.4493 64.3288 29.9801 63.5244 29.3768C62.5188 28.6394 61.4797 27.969 60.5412 27.1645C59.9044 26.6282 59.4351 25.8573 59.4016 24.9858C59.3346 23.1088 59.3346 21.1983 59.3346 19.3212C59.3346 18.5503 59.5021 17.7794 59.8373 17.0755C60.3401 16.07 61.1445 15.5337 62.1836 15.232C62.921 15.0309 63.6584 14.9638 64.4293 14.9303C65.5019 14.8968 66.5745 14.9638 67.6136 15.232C69.1554 15.6342 70.094 16.6733 70.3956 18.2151C70.5297 18.8855 70.5632 19.5559 70.5632 20.2262C70.5967 21.4329 70.5632 22.6731 70.5632 23.8797C70.5632 24.1479 70.4962 24.2149 70.228 24.2149C69.0214 24.2149 67.7812 24.2149 66.5745 24.2149C66.2729 24.2149 66.2393 24.1144 66.2393 23.8462C66.2393 22.1033 66.2393 20.3603 66.2393 18.6174C66.2393 18.2486 66.1723 17.8799 66.0718 17.5448C65.8371 16.7068 64.8651 16.3046 64.0942 16.6733C63.9601 16.7403 63.8595 16.9414 63.826 17.0755C63.7255 17.5112 63.6249 17.947 63.6249 18.3827C63.5914 20.0922 63.5579 21.7681 63.5579 23.4775C63.5579 23.7457 63.6249 24.0473 63.6584 24.3155C63.759 24.9188 64.1277 25.3881 64.5969 25.7233C65.8706 26.6618 67.1443 27.5668 68.4516 28.4718C69.4906 29.2092 70.2951 30.1142 70.7308 31.3543C70.8984 31.8236 70.999 32.3599 71.0325 32.8627C71.0995 34.0358 71.133 35.2425 71.0995 36.4156C71.066 37.3541 70.9319 38.3262 70.7643 39.2312C70.4627 40.8736 69.3566 41.7786 67.7812 42.1808C66.6751 42.4489 65.5355 42.516 64.3623 42.4824C63.4238 42.4154 62.4853 42.2813 61.5803 41.9126C60.4742 41.4434 59.7703 40.6389 59.4351 39.4658C59.301 38.963 59.2675 38.4602 59.167 37.9575C59.167 37.8904 59.0999 37.8234 59.0664 37.7564C59.0999 35.9464 59.0999 34.0693 59.0999 32.1923Z" fill="white"/>
<path fill-rule="evenodd" clip-rule="evenodd" d="M170.214 35.8797C170.181 35.9802 170.114 36.1143 170.114 36.2149C170.114 37.321 169.98 38.4271 169.745 39.4997C169.41 40.941 168.471 41.7789 167.097 42.1811C165.891 42.5499 164.684 42.5834 163.444 42.5163C162.572 42.4828 161.667 42.3487 160.829 42.0471C159.656 41.5778 158.952 40.7063 158.684 39.5332C158.55 38.8963 158.449 38.226 158.449 37.5556C158.416 36.4495 158.449 35.3434 158.449 34.2373C158.449 33.9691 158.517 33.9021 158.785 33.9021C159.991 33.9021 161.232 33.9021 162.438 33.9021C162.673 33.9021 162.773 33.9691 162.773 34.2373C162.773 35.4439 162.773 36.6506 162.84 37.8908C162.874 38.5612 162.941 39.265 163.042 39.9354C163.109 40.4382 163.544 40.7063 164.014 40.7399C164.952 40.8069 165.354 40.3041 165.555 39.4662C165.589 39.2315 165.622 38.9634 165.622 38.7288C165.622 37.2539 165.622 35.7456 165.622 34.2708C165.622 33.8015 165.455 33.4664 165.153 33.1312C164.382 32.2932 163.444 31.6229 162.505 30.9525C161.701 30.4162 160.863 29.8464 160.092 29.2766C159.187 28.5727 158.584 27.7012 158.483 26.5281C158.382 25.2879 158.349 24.0477 158.751 22.841C159.153 21.6009 160.025 20.897 161.232 20.5283C161.969 20.2936 162.74 20.2601 163.544 20.2266C164.55 20.1931 165.555 20.2601 166.527 20.4947C167.231 20.6623 167.868 20.9305 168.404 21.4668C168.974 22.0366 169.242 22.774 169.376 23.5449C169.511 24.4499 169.544 25.3884 169.645 26.2934C169.678 26.4945 169.578 26.5951 169.376 26.5951C168.17 26.5951 166.963 26.5951 165.757 26.5951C165.555 26.5951 165.455 26.5281 165.455 26.3269C165.455 25.6231 165.455 24.9192 165.388 24.2153C165.354 23.5784 165.254 22.9751 164.885 22.4053C164.382 21.6679 163.31 21.869 162.941 22.5729C162.84 22.774 162.74 23.0421 162.74 23.2768C162.706 24.1818 162.673 25.0868 162.74 25.9582C162.773 26.6621 163.142 27.2319 163.745 27.6342C164.919 28.4051 166.092 29.176 167.231 30.014C168.304 30.7849 169.209 31.6564 169.745 32.8965C169.946 33.3658 170.013 33.9021 170.147 34.4384C170.181 34.5054 170.214 34.606 170.248 34.673C170.214 35.0417 170.214 35.4439 170.214 35.8797Z" fill="white"/>
<path fill-rule="evenodd" clip-rule="evenodd" d="M79.85 32.0248C79.85 28.7064 79.85 25.3881 79.85 22.0698C79.85 21.8016 79.9171 21.634 80.1852 21.5335C81.4589 20.9302 82.7997 20.4609 84.2074 20.2598C85.7158 20.0252 87.2241 20.0252 88.6654 20.5615C89.1682 20.7291 89.5704 20.7291 90.0731 20.595C91.1457 20.3268 92.2183 20.0587 93.2909 20.0922C94.397 20.1257 95.5366 20.2598 96.5757 20.7291C97.7489 21.2989 98.3857 22.2374 98.6203 23.444C98.7544 24.0809 98.7879 24.7848 98.8214 25.4216C98.8214 30.8851 98.8214 36.3151 98.8214 41.7786C98.8214 42.3484 98.855 42.2814 98.3187 42.2814C97.2126 42.2814 96.1065 42.2814 95.0339 42.2814C94.6652 42.2814 94.6316 42.2814 94.6316 41.8792C94.6316 35.9129 94.6316 29.9131 94.6316 23.9468C94.6316 23.3435 94.5311 22.7402 94.2294 22.2039C93.8607 21.634 93.3244 21.567 92.7211 21.6005C92.52 21.634 92.3524 21.7011 92.1513 21.7011C91.8496 21.7346 91.7826 21.8687 91.7826 22.1703C91.7826 28.7064 91.7826 35.2425 91.7826 41.7786C91.7826 42.2479 91.7826 42.2479 91.2798 42.2479C90.1067 42.2479 88.9 42.2479 87.7269 42.2479C87.3246 42.2479 87.3246 42.2479 87.3246 41.8456C87.3246 35.8458 87.3246 29.8796 87.3246 23.8798C87.3246 23.377 87.1906 22.8742 87.023 22.4385C86.7548 21.7681 86.118 21.4665 85.3806 21.6005C85.1124 21.634 84.8443 21.7011 84.5761 21.7681C84.4756 21.8016 84.4085 21.9357 84.375 22.0363C84.3415 22.1033 84.375 22.2039 84.375 22.3044C84.375 28.807 84.375 35.276 84.375 41.7786C84.375 42.2479 84.375 42.2479 83.9058 42.2479C82.6991 42.2479 81.526 42.2479 80.3193 42.2479C80.0176 42.2479 79.9506 42.1473 79.9506 41.8792C79.85 38.6614 79.85 35.3431 79.85 32.0248Z" fill="white"/>
<path fill-rule="evenodd" clip-rule="evenodd" d="M112.661 30.6168C112.661 33.9351 112.661 37.287 112.661 40.6053C112.661 40.9405 112.561 41.1081 112.259 41.2421C110.919 41.812 109.578 42.3147 108.136 42.4823C106.528 42.6834 104.885 42.6499 103.343 42.0466C102.003 41.5438 101.265 40.5383 100.997 39.164C100.863 38.4936 100.829 37.7898 100.796 37.0859C100.796 31.5553 100.796 26.0583 100.796 20.5278C100.796 20.092 100.796 20.092 101.232 20.092C102.438 20.092 103.612 20.092 104.818 20.092C105.287 20.092 105.287 20.092 105.287 20.5613C105.287 26.1254 105.287 31.7229 105.287 37.287C105.287 38.1249 105.254 38.9964 105.489 39.8344C105.69 40.5383 106.025 41.041 106.963 40.974C107.299 40.9405 107.634 40.907 107.969 40.8734C108.136 40.8399 108.204 40.7729 108.204 40.6053C108.204 40.5047 108.204 40.4042 108.204 40.3036C108.204 33.734 108.204 27.1309 108.204 20.5613C108.204 20.092 108.204 20.092 108.673 20.092C109.846 20.092 111.053 20.092 112.226 20.092C112.628 20.092 112.628 20.092 112.628 20.4943C112.661 23.8796 112.661 27.265 112.661 30.6168Z" fill="white"/>
<path fill-rule="evenodd" clip-rule="evenodd" d="M130.967 26.2265C130.967 25.5226 131 24.8187 130.967 24.1148C130.967 23.7126 130.9 23.3104 130.799 22.9082C130.564 21.9697 130.095 21.668 129.224 21.6345C128.587 21.6345 127.917 21.668 127.28 21.735C127.112 21.735 127.045 21.7015 127.045 21.5339C127.045 21.1652 127.045 20.7965 127.045 20.4278C127.045 20.3608 127.146 20.2937 127.213 20.2267C127.213 20.2267 127.246 20.2267 127.28 20.2267C128.352 20.1932 129.425 20.1597 130.497 20.1597C131.101 20.1597 131.704 20.2937 132.307 20.3943C133.045 20.5619 133.715 20.8971 134.252 21.4334C134.855 22.0367 135.19 22.8076 135.324 23.6121C135.425 24.2824 135.492 24.9528 135.492 25.6232C135.492 31.0196 135.492 36.4496 135.492 41.8461C135.492 42.3153 135.492 42.3153 135.022 42.3153C133.045 42.3153 131.034 42.3488 129.056 42.3153C127.917 42.2818 126.777 42.0472 125.805 41.4103C124.766 40.74 124.095 39.8014 123.827 38.5948C123.66 37.7903 123.559 36.9524 123.526 36.1479C123.492 34.5726 123.492 32.9972 123.526 31.4218C123.526 30.6174 123.626 29.813 123.928 29.0085C124.397 27.8019 125.235 27.0309 126.442 26.5952C127.213 26.2935 128.051 26.1595 128.889 26.193C129.559 26.2265 130.263 26.2265 130.967 26.2265ZM131 28.0365C130.43 28.0365 129.861 27.9695 129.324 28.003C128.989 28.003 128.721 28.2041 128.553 28.4722C128.185 29.0085 128.118 29.6119 128.084 30.2152C128.084 32.5615 128.051 34.8742 128.084 37.2205C128.084 37.9915 128.252 38.7624 128.386 39.5333C128.453 40.0361 128.922 40.3713 129.425 40.3713C129.861 40.3713 130.33 40.3713 130.766 40.3713C130.833 40.3713 130.9 40.3377 131 40.3377C131 36.2485 131 32.1928 131 28.0365Z" fill="white"/>
<path fill-rule="evenodd" clip-rule="evenodd" d="M114.741 26.4607C114.741 22.7402 114.741 19.0196 114.741 15.2991C114.741 14.8634 114.775 14.8634 115.21 14.9304C115.78 14.9974 116.35 15.031 116.953 15.098C117.657 15.165 118.361 15.1985 119.065 15.2991C119.132 15.2991 119.233 15.4332 119.233 15.5002C119.266 15.6008 119.233 15.7013 119.233 15.8354C119.233 23.1089 119.233 30.3489 119.233 37.6224C119.233 38.3598 119.333 39.1307 119.467 39.8681C119.568 40.4379 120.171 40.8066 120.741 40.8401C121.076 40.8401 121.411 40.8401 121.747 40.8401C121.948 40.8401 122.015 40.9072 122.015 41.1083C122.015 41.5105 122.015 41.9127 122.015 42.2814C122.015 42.4825 121.948 42.5496 121.747 42.5496C121.009 42.5496 120.272 42.6166 119.568 42.5831C118.227 42.516 116.987 42.1809 115.981 41.2088C115.311 40.5385 114.976 39.734 114.842 38.829C114.741 38.1922 114.708 37.5218 114.708 36.8849C114.741 33.3655 114.741 29.9131 114.741 26.4607Z" fill="white"/>
<path fill-rule="evenodd" clip-rule="evenodd" d="M77.3332 31.2538C77.3332 34.8068 77.3332 38.3597 77.3332 41.9462C77.3332 42.3819 77.3332 42.3819 76.8975 42.3819C75.6908 42.3819 74.4506 42.3819 73.2439 42.3819C72.9423 42.3819 72.8752 42.2814 72.8752 42.0132C72.8752 34.8403 72.8752 27.6674 72.8752 20.4944C72.8752 20.1928 72.9758 20.1257 73.2775 20.1257C74.5176 20.1257 75.7243 20.1257 76.9645 20.1257C77.2662 20.1257 77.3332 20.2263 77.3332 20.528C77.3332 24.0809 77.3332 27.6674 77.3332 31.2538Z" fill="white"/>
<path fill-rule="evenodd" clip-rule="evenodd" d="M155.939 31.2878C155.939 34.8407 155.939 38.3937 155.939 41.9801C155.939 42.3824 155.939 42.3824 155.536 42.3824C154.296 42.3824 153.09 42.3824 151.849 42.3824C151.581 42.3824 151.481 42.3153 151.481 42.0472C151.481 34.8742 151.481 27.6678 151.481 20.4949C151.481 20.2267 151.548 20.1597 151.816 20.1597C153.056 20.1597 154.33 20.1597 155.57 20.1597C155.872 20.1597 155.905 20.2602 155.905 20.5284C155.939 24.0813 155.939 27.6678 155.939 31.2878Z" fill="white"/>
<path fill-rule="evenodd" clip-rule="evenodd" d="M153.693 17.9804C153.056 17.9804 152.419 17.9804 151.782 17.9804C151.581 17.9804 151.481 17.9134 151.481 17.6788C151.481 16.8408 151.481 16.0028 151.481 15.1649C151.481 14.9638 151.548 14.8967 151.749 14.8967C153.056 14.8967 154.33 14.8967 155.637 14.8967C155.838 14.8967 155.905 14.9638 155.905 15.1649C155.905 16.0028 155.905 16.8408 155.905 17.6788C155.905 17.9134 155.805 17.9804 155.603 17.9804C155 17.9469 154.33 17.9804 153.693 17.9804Z" fill="white"/>
</svg>
