<svg width="135" height="44" viewBox="0 0 135 44" fill="none" xmlns="http://www.w3.org/2000/svg">
<path fill-rule="evenodd" clip-rule="evenodd" d="M20.5747 0.0265392C20.6278 0.0530783 20.7074 0.106157 20.7604 0.106157C22.857 0.185774 24.874 0.636939 26.8114 1.3535C27.926 1.75158 29.0141 2.22929 30.0757 2.76007C31.6946 3.55625 33.2338 4.53819 34.667 5.6263C35.3835 6.18362 36.1001 6.74094 36.8166 7.29826C36.9493 7.40442 37.0555 7.43096 37.2147 7.29826C37.8517 6.82056 38.5151 6.36939 39.1521 5.89169C39.6829 5.4936 40.1871 5.09552 40.7179 4.67089C40.7444 4.64435 40.7975 4.61781 40.8506 4.59127C40.771 5.12206 40.7179 5.59976 40.6383 6.104C40.5586 6.76748 40.4525 7.40442 40.3729 8.0679C40.2933 8.6783 40.2136 9.2887 40.1075 9.92564C40.0279 10.5626 39.9217 11.2261 39.8421 11.863C39.7359 12.553 39.6563 13.243 39.5502 13.9331C39.5502 13.9861 39.444 14.0657 39.3909 14.0392C38.1967 13.88 37.0024 13.7207 35.8081 13.535C34.9058 13.4023 34.03 13.3226 33.1277 13.19C32.3581 13.0838 31.615 12.9776 30.8453 12.8715C30.6065 12.8449 30.3676 12.8184 30.1288 12.7919C30.1288 12.7653 30.1288 12.7388 30.1288 12.7388C30.3411 12.553 30.5799 12.3672 30.7922 12.1815C31.5619 11.5445 32.3581 10.9341 33.1277 10.2972C33.1808 10.2706 33.1808 10.138 33.1542 10.0849C32.7031 9.26216 32.0927 8.59868 31.3761 8.01482C30.5534 7.3248 29.6511 6.79402 28.6691 6.34286C27.3952 5.75899 26.0683 5.33437 24.6882 5.04244C23.9717 4.90974 23.2551 4.80359 22.5386 4.69743C21.477 4.53819 20.4154 4.53819 19.3273 4.56473C17.735 4.61781 16.1426 4.80359 14.6299 5.30783C13.7541 5.59976 12.9049 5.94477 12.1087 6.31632C11.0471 6.82056 10.1183 7.56366 9.32208 8.43945C9.16284 8.62522 9.00361 8.811 8.84438 9.02331C8.1809 8.49253 7.51742 7.98828 6.8274 7.43096C6.8274 9.79294 6.8274 12.0753 6.8274 14.3842C9.29554 14.3842 11.7637 14.3842 14.2849 14.3842C13.5949 13.6146 12.9314 12.8715 12.2414 12.1284C12.4272 11.9692 12.6129 11.8099 12.7987 11.7038C13.5683 11.2261 14.338 10.7218 15.1342 10.2972C16.1957 9.73987 17.3369 9.39486 18.5312 9.23562C19.2212 9.156 19.9112 9.156 20.6012 9.07639C20.9197 9.04985 21.132 9.156 21.3443 9.39486C23.3347 11.3853 25.3252 13.3757 27.3156 15.3662C31.8273 19.8778 36.3389 24.3629 40.8771 28.8746C41.0629 29.0604 41.0894 29.1665 40.9833 29.4054C40.2667 31.21 39.3113 32.8555 38.1701 34.3947C37.719 34.9786 37.2413 35.5094 36.737 36.0667C35.5162 37.4733 34.0566 38.6145 32.5173 39.6229C30.2615 41.0826 27.8199 42.1176 25.219 42.728C24.2902 42.9403 23.3613 43.073 22.4059 43.2057C21.3178 43.365 20.2297 43.3915 19.1681 43.3384C17.4961 43.2588 15.8507 43.02 14.2318 42.5688C12.9049 42.1972 11.6044 41.693 10.3836 41.0561C9.21592 40.4457 8.10128 39.7291 7.09279 38.8798C6.45585 38.3225 5.81891 37.7387 5.20851 37.1283C4.91658 36.8629 4.67773 36.5444 4.41234 36.2259C4.22656 36.0136 4.17349 35.9871 3.96117 36.1463C2.89961 36.8629 1.86458 37.5794 0.803015 38.296C0.696859 38.3491 0.617241 38.4021 0.458007 38.5083C0.484546 38.2694 0.484546 38.0837 0.511085 37.8979C0.590702 37.1283 0.67032 36.3852 0.749937 35.6155C0.829555 34.7928 0.856094 33.9701 0.935711 33.1474C1.04187 31.9266 1.17456 30.7323 1.30726 29.5381C1.3338 29.3788 1.41342 29.3258 1.57265 29.3523C2.31575 29.4584 3.05884 29.5646 3.80194 29.6708C4.43888 29.7504 5.07582 29.83 5.71276 29.9096C6.37624 29.9892 7.03971 30.0954 7.70319 30.175C8.36667 30.2546 9.00361 30.3342 9.66709 30.4139C10.0121 30.4669 10.3836 30.52 10.7817 30.5731C10.4633 30.8385 10.1713 31.1039 9.90594 31.3427C9.29554 31.847 8.6586 32.3512 8.0482 32.882C7.70319 33.1739 7.70319 33.2005 7.96858 33.572C8.60552 34.5009 9.4017 35.2705 10.3306 35.934C12.0556 37.1813 13.993 37.951 16.063 38.4287C16.8592 38.6145 17.7084 38.7206 18.5312 38.8268C19.3008 38.9064 20.0439 38.9595 20.8135 38.9595C21.8486 38.9595 22.857 38.8798 23.8921 38.6941C25.1394 38.4818 26.3602 38.1633 27.5545 37.6856C28.8283 37.1813 30.0226 36.4913 31.0842 35.6155C31.4026 35.3501 31.7211 35.0582 32.0396 34.7663C32.2519 34.554 32.2784 34.554 32.4907 34.7663C32.7827 35.0317 33.0481 35.2971 33.34 35.5625C33.5789 35.7748 33.8177 35.9871 34.0831 36.1994C34.1096 36.1994 34.1362 36.1729 34.1627 36.1729C34.1096 33.8109 34.0831 31.4489 34.03 29.0869C31.615 29.0869 29.2264 29.0869 26.8114 29.0869C26.8114 29.1134 26.7848 29.14 26.7848 29.1665C26.8379 29.2196 26.891 29.2992 26.9706 29.3523C27.5545 29.9096 28.1383 30.4404 28.6957 30.9977C28.908 31.1835 28.908 31.2366 28.6957 31.4223C28.2445 31.9001 27.6872 32.2185 27.1298 32.5105C25.856 33.2005 24.5555 33.7578 23.1755 34.1824C22.4059 34.4213 21.6097 34.6336 20.787 34.6336C20.3358 34.6336 19.9643 34.5009 19.6193 34.1559C17.1777 31.6877 14.7095 29.2196 12.2414 26.778C8.26051 22.8237 4.27964 18.8428 0.298772 14.8885C0.00684118 14.5965 -0.0462371 14.2781 0.0333803 13.9065C0.272233 12.8715 0.776476 11.9426 1.30726 11.0403C1.99728 9.92564 2.79345 8.89061 3.6427 7.88213C4.67773 6.68786 5.84545 5.59976 7.09279 4.61781C8.39321 3.58278 9.79978 2.70699 11.286 1.99044C12.8783 1.2208 14.5503 0.636939 16.3019 0.371548C17.098 0.238852 17.9208 0.185774 18.7435 0.0796175C18.7966 0.0796175 18.8762 0.0265391 18.9292 0C19.5131 0.0265391 20.0439 0.0265392 20.5747 0.0265392ZM11.6841 20.0636C11.6575 20.0636 11.631 20.0901 11.631 20.0901C11.7371 20.2759 11.8168 20.5148 11.976 20.674C12.7987 21.5498 13.648 22.399 14.4972 23.2483C15.6915 24.4691 16.8857 25.6634 18.08 26.8842C18.9292 27.7599 19.805 28.6092 20.6543 29.485C21.0258 29.8565 21.3974 30.2546 21.7689 30.6262C22.0874 30.9446 22.5916 30.9446 22.8836 30.6527C23.2021 30.3608 23.1755 29.8565 22.857 29.5381C22.6182 29.2727 22.3528 29.0073 22.1139 28.7684C20.9993 27.6272 19.8847 26.4861 18.7435 25.3449C17.7615 24.3629 16.7796 23.381 15.7976 22.399C14.8422 21.4436 13.8868 20.4617 12.9314 19.5063C12.6926 19.2674 12.4006 19.2674 12.1087 19.3736C11.8433 19.4797 11.6841 19.7451 11.6841 20.0636ZM25.9621 27.4149C26.3071 27.3619 26.5725 27.2026 26.6787 26.9372C26.8114 26.5922 26.7318 26.2738 26.4929 26.0084C25.7498 25.2653 25.0332 24.5222 24.2902 23.7525C22.5916 22.054 20.9197 20.329 19.2212 18.6305C18.7966 18.2059 18.3454 17.7547 17.9208 17.3301C17.5492 16.9585 17.2042 16.5604 16.8327 16.2154C16.5142 15.8969 16.0099 15.8969 15.718 16.1889C15.4261 16.4808 15.4261 16.9851 15.7446 17.3035C16.2753 17.8343 16.7796 18.3916 17.3104 18.9224C18.1331 19.7717 18.9558 20.6209 19.805 21.4436C21.6893 23.3279 23.5471 25.2387 25.4313 27.123C25.564 27.2557 25.7763 27.3088 25.9621 27.4149ZM20.2297 12.553C19.805 12.5796 19.5662 12.6857 19.4335 12.9776C19.3008 13.2961 19.3539 13.6411 19.5927 13.88C20.4951 14.8088 21.3974 15.7112 22.2997 16.64C23.0428 17.3831 23.7594 18.1262 24.5025 18.8959C26.0417 20.4617 27.581 22.0009 29.1203 23.5668C29.4387 23.8852 29.943 23.9118 30.2349 23.5933C30.5269 23.3014 30.5269 22.7971 30.2084 22.4787C29.3326 21.5763 28.4303 20.674 27.5545 19.7717C26.9441 19.1347 26.3071 18.4978 25.6967 17.8874C24.0248 16.1889 22.3528 14.4904 20.6808 12.8184C20.5481 12.6857 20.3093 12.6061 20.2297 12.553Z" fill="white"/>
<path fill-rule="evenodd" clip-rule="evenodd" d="M59.4825 14.145C58.9782 14.145 58.474 14.145 57.9698 14.145C57.784 14.145 57.7309 14.0654 57.7309 13.9062C57.7309 13.2693 57.7309 12.6058 57.7309 11.9688C57.7309 11.7831 57.784 11.73 57.9698 11.73C58.9782 11.73 60.0133 11.73 61.0218 11.73C61.2075 11.73 61.2606 11.7831 61.2606 11.9688C61.2606 12.6323 61.2606 13.2693 61.2606 13.9327C61.2606 14.092 61.2075 14.1716 61.0218 14.1716C60.491 14.1185 59.9867 14.145 59.4825 14.145Z" fill="white"/>
<path fill-rule="evenodd" clip-rule="evenodd" d="M118.449 43.3657C118.29 43.3126 118.13 43.2595 117.945 43.233C116.352 42.9676 115.423 42.1183 115.052 40.526C114.946 40.1013 114.919 39.6236 114.893 39.1725C114.893 32.4581 114.893 25.7702 114.893 19.0558C114.893 18.525 114.84 18.0208 114.574 17.5431C114.362 17.1715 114.043 17.0123 113.645 17.0123C113.38 17.0123 113.115 17.0654 112.849 17.1184C112.663 17.145 112.584 17.2511 112.61 17.4369C112.61 18.2065 112.61 18.9762 112.61 19.7458C112.61 24.1513 112.61 28.5568 112.61 32.9888C112.61 33.3339 112.61 33.3339 112.265 33.3339C111.283 33.3339 110.301 33.3339 109.293 33.3339C109.054 33.3339 109.001 33.2542 109.001 33.0419C109.001 27.7606 109.001 22.5059 109.001 17.2246C109.001 17.0388 109.054 16.9327 109.213 16.853C110.248 16.3753 111.336 15.9773 112.478 15.8711C113.088 15.818 113.698 15.7649 114.309 15.7915C115.052 15.818 115.768 15.9242 116.458 16.2161C117.494 16.6407 118.051 17.4634 118.263 18.525C118.369 19.0558 118.396 19.6131 118.396 20.1439C118.396 26.8052 118.396 33.44 118.396 40.1013C118.396 40.4198 118.449 40.7648 118.502 41.0833C118.608 41.5875 119.112 41.9325 119.723 41.9591C119.935 41.9591 120.147 41.9325 120.36 41.9325C120.492 41.9325 120.572 41.9591 120.572 42.0918C120.572 42.4368 120.572 42.7553 120.572 43.1003C120.572 43.2595 120.492 43.3126 120.36 43.286C120.147 43.286 119.909 43.286 119.696 43.286C119.617 43.286 119.537 43.3391 119.484 43.3657C119.192 43.3657 118.82 43.3657 118.449 43.3657Z" fill="#EF3139"/>
<path fill-rule="evenodd" clip-rule="evenodd" d="M46.7939 25.3978C47.2185 25.3978 47.6431 25.3713 48.0678 25.3713C48.7578 25.3713 49.4478 25.3713 50.1378 25.3713C50.3767 25.3713 50.4563 25.4244 50.4563 25.6632C50.4563 27.3087 50.4563 28.9541 50.4563 30.5995C50.4563 30.9976 50.5359 31.3692 50.7482 31.7142C51.0932 32.298 52.2079 32.298 52.4467 31.6345C52.5529 31.3692 52.659 31.0772 52.659 30.7853C52.6856 29.1133 52.6856 27.4414 52.7121 25.7959C52.7121 25.3182 52.5263 24.9467 52.2079 24.6017C51.6505 24.0178 50.934 23.6463 50.297 23.1686C49.5009 22.5847 48.6782 22.0539 47.9351 21.417C47.4308 20.9923 47.0593 20.3819 47.0327 19.6919C46.9796 18.2057 46.9796 16.693 46.9796 15.2068C46.9796 14.5964 47.1123 13.986 47.3777 13.4287C47.7758 12.6325 48.4128 12.2079 49.2355 11.969C49.8193 11.8098 50.4032 11.7567 51.0136 11.7302C51.8628 11.7036 52.7121 11.7567 53.5348 11.969C54.7556 12.2875 55.4987 13.1102 55.7376 14.331C55.8437 14.8618 55.8703 15.3926 55.8703 15.9234C55.8968 16.8788 55.8703 17.8607 55.8703 18.8161C55.8703 19.0284 55.8172 19.0815 55.6049 19.0815C54.6495 19.0815 53.6675 19.0815 52.7121 19.0815C52.4733 19.0815 52.4467 19.0019 52.4467 18.7896C52.4467 17.4096 52.4467 16.0295 52.4467 14.6495C52.4467 14.3576 52.3936 14.0656 52.314 13.8002C52.1282 13.1368 51.3586 12.8183 50.7482 13.1102C50.642 13.1633 50.5624 13.3225 50.5359 13.4287C50.4563 13.7737 50.3767 14.1187 50.3767 14.4637C50.3501 15.8172 50.3236 17.1442 50.3236 18.4977C50.3236 18.71 50.3767 18.9488 50.4032 19.1611C50.4828 19.6388 50.7747 20.0104 51.1463 20.2758C52.1548 21.0189 53.1633 21.7354 54.1983 22.452C55.021 23.0359 55.6579 23.7524 56.003 24.7344C56.1357 25.1059 56.2153 25.5305 56.2418 25.9286C56.2949 26.8575 56.3214 27.8129 56.2949 28.7418C56.2683 29.4849 56.1622 30.2545 56.0295 30.9711C55.7906 32.2715 54.9149 32.988 53.6675 33.3065C52.7917 33.5188 51.8894 33.5719 50.9605 33.5454C50.2174 33.4923 49.4743 33.3861 48.7578 33.0942C47.882 32.7226 47.3247 32.0857 47.0593 31.1568C46.9531 30.7588 46.9266 30.3607 46.847 29.9626C46.847 29.9095 46.7939 29.8564 46.7673 29.8033C46.7939 28.3702 46.7939 26.884 46.7939 25.3978Z" fill="white"/>
<path fill-rule="evenodd" clip-rule="evenodd" d="M134.772 28.3179C134.746 28.3975 134.693 28.5037 134.693 28.5833C134.693 29.4591 134.587 30.3349 134.401 31.1841C134.136 32.3253 133.392 32.9888 132.304 33.3073C131.349 33.5992 130.394 33.6257 129.412 33.5727C128.722 33.5461 128.005 33.44 127.342 33.2011C126.413 32.8296 125.855 32.1395 125.643 31.2107C125.537 30.7064 125.457 30.1757 125.457 29.6449C125.431 28.7691 125.457 27.8933 125.457 27.0175C125.457 26.8052 125.51 26.7521 125.723 26.7521C126.678 26.7521 127.66 26.7521 128.615 26.7521C128.801 26.7521 128.881 26.8052 128.881 27.0175C128.881 27.9729 128.881 28.9283 128.934 29.9103C128.96 30.441 129.014 30.9984 129.093 31.5291C129.146 31.9272 129.491 32.1395 129.863 32.1661C130.606 32.2192 130.924 31.8211 131.084 31.1576C131.11 30.9718 131.137 30.7595 131.137 30.5737C131.137 29.406 131.137 28.2118 131.137 27.044C131.137 26.6725 131.004 26.4071 130.765 26.1417C130.155 25.4782 129.412 24.9474 128.668 24.4167C128.032 23.992 127.368 23.5409 126.758 23.0897C126.041 22.5324 125.563 21.8424 125.484 20.9135C125.404 19.9315 125.378 18.9496 125.696 17.9942C126.015 17.0122 126.705 16.4549 127.66 16.163C128.244 15.9772 128.854 15.9507 129.491 15.9241C130.287 15.8976 131.084 15.9507 131.853 16.1364C132.411 16.2691 132.915 16.4815 133.339 16.9061C133.791 17.3572 134.003 17.9411 134.109 18.5515C134.215 19.2681 134.242 20.0112 134.321 20.7277C134.348 20.887 134.268 20.9666 134.109 20.9666C133.154 20.9666 132.198 20.9666 131.243 20.9666C131.084 20.9666 131.004 20.9135 131.004 20.7543C131.004 20.1969 131.004 19.6396 130.951 19.0823C130.924 18.578 130.845 18.1003 130.553 17.6492C130.155 17.0653 129.305 17.2246 129.014 17.7819C128.934 17.9411 128.854 18.1534 128.854 18.3392C128.828 19.0558 128.801 19.7723 128.854 20.4623C128.881 21.0196 129.173 21.4708 129.65 21.7893C130.579 22.3997 131.508 23.0101 132.411 23.6736C133.26 24.284 133.976 24.974 134.401 25.9559C134.56 26.3275 134.613 26.7521 134.719 27.1767C134.746 27.2298 134.772 27.3094 134.799 27.3625C134.772 27.6544 134.772 27.9729 134.772 28.3179Z" fill="white"/>
<path fill-rule="evenodd" clip-rule="evenodd" d="M63.2234 25.2651C63.2234 22.6378 63.2234 20.0104 63.2234 17.383C63.2234 17.1707 63.2765 17.038 63.4888 16.9584C64.4973 16.4807 65.5588 16.1091 66.6735 15.9499C67.8677 15.7641 69.062 15.7641 70.2032 16.1887C70.6013 16.3214 70.9197 16.3214 71.3178 16.2153C72.1671 16.003 73.0163 15.7907 73.8656 15.8172C74.7414 15.8437 75.6437 15.9499 76.4664 16.3214C77.3953 16.7726 77.8995 17.5157 78.0853 18.4711C78.1915 18.9754 78.218 19.5327 78.2445 20.0369C78.2445 24.3628 78.2445 28.6621 78.2445 32.988C78.2445 33.4392 78.2711 33.3861 77.8465 33.3861C76.9707 33.3861 76.0949 33.3861 75.2456 33.3861C74.9537 33.3861 74.9272 33.3861 74.9272 33.0676C74.9272 28.3437 74.9272 23.5932 74.9272 18.8692C74.9272 18.3915 74.8475 17.9138 74.6087 17.4892C74.3167 17.038 73.8921 16.9849 73.4144 17.0115C73.2552 17.038 73.1225 17.0911 72.9633 17.0911C72.7244 17.1176 72.6713 17.2238 72.6713 17.4626C72.6713 22.6378 72.6713 27.8129 72.6713 32.988C72.6713 33.3596 72.6713 33.3596 72.2732 33.3596C71.3444 33.3596 70.389 33.3596 69.4601 33.3596C69.1416 33.3596 69.1416 33.3596 69.1416 33.0411C69.1416 28.2906 69.1416 23.5666 69.1416 18.8161C69.1416 18.418 69.0355 18.0199 68.9028 17.6749C68.6905 17.1442 68.1862 16.9053 67.6023 17.0115C67.39 17.038 67.1777 17.0911 66.9654 17.1442C66.8858 17.1707 66.8327 17.2768 66.8062 17.3565C66.7796 17.4095 66.8062 17.4892 66.8062 17.5688C66.8062 22.7174 66.8062 27.8394 66.8062 32.988C66.8062 33.3596 66.8062 33.3596 66.4346 33.3596C65.4792 33.3596 64.5503 33.3596 63.5949 33.3596C63.3561 33.3596 63.303 33.28 63.303 33.0676C63.2234 30.5199 63.2234 27.8925 63.2234 25.2651Z" fill="white"/>
<path fill-rule="evenodd" clip-rule="evenodd" d="M89.2028 24.1507C89.2028 26.778 89.2028 29.432 89.2028 32.0593C89.2028 32.3247 89.1232 32.4574 88.8844 32.5636C87.8228 33.0147 86.7612 33.4128 85.6201 33.5455C84.3462 33.7048 83.0458 33.6782 81.825 33.2005C80.7634 32.8024 80.1795 32.0063 79.9672 30.9182C79.8611 30.3874 79.8345 29.83 79.808 29.2727C79.808 24.8938 79.808 20.5414 79.808 16.1624C79.808 15.8174 79.808 15.8174 80.153 15.8174C81.1084 15.8174 82.0373 15.8174 82.9927 15.8174C83.3642 15.8174 83.3642 15.8174 83.3642 16.1889C83.3642 20.5944 83.3642 25.0265 83.3642 29.432C83.3642 30.0954 83.3377 30.7855 83.5235 31.4489C83.6827 32.0063 83.9481 32.4043 84.6912 32.3513C84.9566 32.3247 85.222 32.2982 85.4874 32.2717C85.6201 32.2451 85.6731 32.192 85.6731 32.0593C85.6731 31.9797 85.6731 31.9001 85.6731 31.8205C85.6731 26.6188 85.6731 21.3906 85.6731 16.1889C85.6731 15.8174 85.6731 15.8174 86.0447 15.8174C86.9736 15.8174 87.929 15.8174 88.8578 15.8174C89.1763 15.8174 89.1763 15.8174 89.1763 16.1359C89.2028 18.8163 89.2028 21.4968 89.2028 24.1507Z" fill="white"/>
<path fill-rule="evenodd" clip-rule="evenodd" d="M103.697 20.6749C103.697 20.1176 103.724 19.5603 103.697 19.003C103.697 18.6845 103.644 18.366 103.564 18.0475C103.379 17.3045 103.007 17.0656 102.317 17.0391C101.813 17.0391 101.282 17.0656 100.778 17.1187C100.645 17.1187 100.592 17.0921 100.592 16.9594C100.592 16.6675 100.592 16.3756 100.592 16.0837C100.592 16.0306 100.672 15.9775 100.725 15.9244C100.725 15.9244 100.751 15.9244 100.778 15.9244C101.627 15.8979 102.476 15.8713 103.325 15.8713C103.803 15.8713 104.281 15.9775 104.759 16.0571C105.342 16.1898 105.873 16.4552 106.298 16.8798C106.776 17.3575 107.041 17.9679 107.147 18.6049C107.227 19.1357 107.28 19.6664 107.28 20.1972C107.28 24.47 107.28 28.7694 107.28 33.0422C107.28 33.4137 107.28 33.4137 106.908 33.4137C105.342 33.4137 103.75 33.4403 102.184 33.4137C101.282 33.3872 100.38 33.2014 99.61 32.6972C98.7872 32.1664 98.2565 31.4233 98.0442 30.4679C97.9115 29.8309 97.8318 29.1674 97.8053 28.5305C97.7788 27.2832 97.7788 26.0358 97.8053 24.7885C97.8053 24.1516 97.8849 23.5146 98.1238 22.8777C98.4953 21.9223 99.1588 21.3119 100.114 20.9669C100.725 20.728 101.388 20.6218 102.052 20.6484C102.582 20.6749 103.14 20.6749 103.697 20.6749ZM103.724 22.108C103.272 22.108 102.821 22.055 102.397 22.0815C102.131 22.0815 101.919 22.2407 101.786 22.453C101.494 22.8777 101.441 23.3554 101.415 23.8331C101.415 25.6908 101.388 27.522 101.415 29.3798C101.415 29.9902 101.547 30.6006 101.653 31.211C101.707 31.6091 102.078 31.8744 102.476 31.8744C102.821 31.8744 103.193 31.8744 103.538 31.8744C103.591 31.8744 103.644 31.8479 103.724 31.8479C103.724 28.6101 103.724 25.3989 103.724 22.108Z" fill="white"/>
<path fill-rule="evenodd" clip-rule="evenodd" d="M90.8501 20.8607C90.8501 17.9149 90.8501 14.969 90.8501 12.0232C90.8501 11.6782 90.8766 11.6782 91.2216 11.7313C91.6728 11.7843 92.124 11.8109 92.6017 11.864C93.159 11.917 93.7163 11.9436 94.2736 12.0232C94.3267 12.0232 94.4063 12.1293 94.4063 12.1824C94.4329 12.262 94.4063 12.3417 94.4063 12.4478C94.4063 18.2068 94.4063 23.9393 94.4063 29.6983C94.4063 30.2821 94.486 30.8925 94.5921 31.4764C94.6717 31.9275 95.1494 32.2195 95.6006 32.246C95.866 32.246 96.1314 32.246 96.3968 32.246C96.556 32.246 96.6091 32.2991 96.6091 32.4583C96.6091 32.7768 96.6091 33.0953 96.6091 33.3872C96.6091 33.5464 96.556 33.5995 96.3968 33.5995C95.8129 33.5995 95.229 33.6526 94.6717 33.6261C93.6102 33.573 92.6282 33.3076 91.832 32.538C91.3013 32.0072 91.0359 31.3702 90.9297 30.6537C90.8501 30.1494 90.8235 29.6186 90.8235 29.1144C90.8501 26.3278 90.8501 23.5943 90.8501 20.8607Z" fill="white"/>
<path fill-rule="evenodd" clip-rule="evenodd" d="M61.2306 24.6543C61.2306 27.4674 61.2306 30.2806 61.2306 33.1202C61.2306 33.4653 61.2306 33.4653 60.8856 33.4653C59.9302 33.4653 58.9483 33.4653 57.9929 33.4653C57.754 33.4653 57.7009 33.3856 57.7009 33.1733C57.7009 27.4939 57.7009 21.8146 57.7009 16.1352C57.7009 15.8963 57.7805 15.8433 58.0194 15.8433C59.0013 15.8433 59.9568 15.8433 60.9387 15.8433C61.1776 15.8433 61.2306 15.9229 61.2306 16.1617C61.2306 18.9749 61.2306 21.8146 61.2306 24.6543Z" fill="white"/>
<path fill-rule="evenodd" clip-rule="evenodd" d="M123.469 24.6823C123.469 27.4955 123.469 30.3086 123.469 33.1483C123.469 33.4668 123.469 33.4668 123.15 33.4668C122.168 33.4668 121.213 33.4668 120.231 33.4668C120.019 33.4668 119.939 33.4137 119.939 33.2014C119.939 27.522 119.939 21.8161 119.939 16.1367C119.939 15.9244 119.992 15.8713 120.204 15.8713C121.186 15.8713 122.195 15.8713 123.177 15.8713C123.416 15.8713 123.442 15.951 123.442 16.1633C123.469 18.9764 123.469 21.8161 123.469 24.6823Z" fill="white"/>
<path fill-rule="evenodd" clip-rule="evenodd" d="M121.69 14.1447C121.186 14.1447 120.682 14.1447 120.178 14.1447C120.019 14.1447 119.939 14.0916 119.939 13.9059C119.939 13.2424 119.939 12.5789 119.939 11.9154C119.939 11.7562 119.992 11.7031 120.151 11.7031C121.186 11.7031 122.195 11.7031 123.23 11.7031C123.389 11.7031 123.442 11.7562 123.442 11.9154C123.442 12.5789 123.442 13.2424 123.442 13.9059C123.442 14.0916 123.362 14.1447 123.203 14.1447C122.726 14.1182 122.195 14.1447 121.69 14.1447Z" fill="white"/>
</svg>
