<svg width="29" height="29" viewBox="0 0 29 29" fill="none" xmlns="http://www.w3.org/2000/svg">
<path d="M18.394 8.5C16.504 8.5 15.559 8.50004 14.8375 8.92004C14.203 9.29054 13.6855 9.87999 13.363 10.606C12.994 11.431 12.994 12.511 12.994 14.671V28M9.619 16H18.619M1 14.5C1 10.729 0.999994 8.84499 1.53099 7.32849C1.99991 5.98879 2.7646 4.77195 3.76827 3.76828C4.77193 2.76461 5.98879 1.99992 7.32849 1.53101C8.84499 1.00001 10.729 1 14.5 1C18.271 1 20.155 1.00001 21.6715 1.53101C23.0112 1.99992 24.2281 2.76461 25.2317 3.76828C26.2354 4.77195 27.0001 5.98879 27.469 7.32849C28 8.84499 28 10.729 28 14.5C28 18.271 28 20.155 27.469 21.6715C27.0001 23.0112 26.2354 24.2281 25.2317 25.2317C24.2281 26.2354 23.0112 27.0001 21.6715 27.469C20.155 28 18.271 28 14.5 28C10.729 28 8.84499 28 7.32849 27.469C5.98879 27.0001 4.77193 26.2354 3.76827 25.2317C2.7646 24.2281 1.99991 23.0112 1.53099 21.6715C0.999994 20.155 1 18.271 1 14.5Z" stroke="white" stroke-width="2" stroke-linecap="round" stroke-linejoin="round"/>
</svg>
