<svg width="29" height="29" viewBox="0 0 29 29" fill="none" xmlns="http://www.w3.org/2000/svg">
<path d="M8.5 13V20.5M13 11.5V14.5M13 20.5V14.845C13 14.3248 13.1802 13.8206 13.51 13.4183C13.8398 13.016 14.2989 12.7404 14.809 12.6385L16.912 12.217C17.3473 12.13 17.7965 12.1407 18.2272 12.2483C18.6579 12.3559 19.0593 12.5577 19.4026 12.8392C19.7458 13.1208 20.0223 13.475 20.212 13.8763C20.4018 14.2777 20.5002 14.7161 20.5 15.16V20.5M8.5 8.5H8.51499M1 14.5C1 10.729 0.999994 8.84499 1.53099 7.32849C1.99991 5.98879 2.7646 4.77195 3.76827 3.76828C4.77193 2.76461 5.98879 1.99992 7.32849 1.53101C8.84499 1.00001 10.729 1 14.5 1C18.271 1 20.155 1.00001 21.6715 1.53101C23.0112 1.99992 24.2281 2.76461 25.2317 3.76828C26.2354 4.77195 27.0001 5.98879 27.469 7.32849C28 8.84499 28 10.729 28 14.5C28 18.271 28 20.155 27.469 21.6715C27.0001 23.0112 26.2354 24.2281 25.2317 25.2317C24.2281 26.2354 23.0112 27.0001 21.6715 27.469C20.155 28 18.271 28 14.5 28C10.729 28 8.84499 28 7.32849 27.469C5.98879 27.0001 4.77193 26.2354 3.76827 25.2317C2.7646 24.2281 1.99991 23.0112 1.53099 21.6715C0.999994 20.155 1 18.271 1 14.5Z" stroke="white" stroke-width="2" stroke-linecap="round" stroke-linejoin="round"/>
</svg>
