<svg width="29" height="29" viewBox="0 0 29 29" fill="none" xmlns="http://www.w3.org/2000/svg">
<path d="M22 7H22.015M1 14.5C1 10.735 1.00001 8.84496 1.53101 7.32996C2.00114 5.98982 2.76631 4.77239 3.77003 3.76764C4.77375 2.76288 5.99037 1.99648 7.33001 1.52496C8.84501 0.999963 10.7305 1 14.5 1C18.271 1 20.1565 0.999963 21.6715 1.52496C23.0111 1.99648 24.2278 2.76288 25.2315 3.76764C26.2352 4.77239 27.0004 5.98982 27.4705 7.32996C28 8.84496 28 10.735 28 14.5C28 18.265 28 20.155 27.4705 21.67C27.0004 23.0102 26.2352 24.2276 25.2315 25.2324C24.2278 26.2371 23.0111 27.0035 21.6715 27.475C20.1565 28 18.271 28 14.5 28C10.7305 28 8.84501 28 7.33001 27.475C5.99037 27.0035 4.77375 26.2371 3.77003 25.2324C2.76631 24.2276 2.00114 23.0102 1.53101 21.67C1.00001 20.155 1 18.265 1 14.5ZM20.167 13.6599C20.344 14.8449 20.14 16.075 19.585 17.14C19.0283 18.2068 18.1501 19.0713 17.0747 19.6112C15.9993 20.1511 14.7814 20.3389 13.5933 20.1481C12.4053 19.9573 11.3074 19.3974 10.4552 18.5479C9.60297 17.6984 9.03965 16.6024 8.845 15.415C8.653 14.215 8.84199 13 9.38349 11.92C9.92499 10.855 10.7935 9.96998 11.863 9.41498C12.9311 8.85751 14.1483 8.65269 15.34 8.82996C16.5563 9.01052 17.6823 9.57773 18.5516 10.4475C19.4208 11.3173 19.9872 12.4435 20.167 13.6599Z" stroke="white" stroke-width="2" stroke-linecap="round" stroke-linejoin="round"/>
</svg>
